<svg width="128" height="129" viewBox="0 0 128 129" fill="none" xmlns="http://www.w3.org/2000/svg">
<path d="M80 121.433H48C19.04 121.433 6.66663 109.06 6.66663 80.0999V48.0999C6.66663 19.1399 19.04 6.7666 48 6.7666H80C108.96 6.7666 121.333 19.1399 121.333 48.0999V80.0999C121.333 109.06 108.96 121.433 80 121.433ZM48 14.7666C23.4133 14.7666 14.6666 23.5133 14.6666 48.0999V80.0999C14.6666 104.687 23.4133 113.433 48 113.433H80C104.587 113.433 113.333 104.687 113.333 80.0999V48.0999C113.333 23.5133 104.587 14.7666 80 14.7666H48Z" fill="#529A9A"/>
<path d="M82.6666 56.0996C76.0533 56.0996 70.6666 50.7129 70.6666 44.0996C70.6666 37.4863 76.0533 32.0996 82.6666 32.0996C89.28 32.0996 94.6666 37.4863 94.6666 44.0996C94.6666 50.7129 89.28 56.0996 82.6666 56.0996ZM82.6666 40.0996C80.48 40.0996 78.6666 41.9129 78.6666 44.0996C78.6666 46.2863 80.48 48.0996 82.6666 48.0996C84.8533 48.0996 86.6666 46.2863 86.6666 44.0996C86.6666 41.9129 84.8533 40.0996 82.6666 40.0996Z" fill="#529A9A"/>
<path d="M45.3334 56.0996C38.72 56.0996 33.3334 50.7129 33.3334 44.0996C33.3334 37.4863 38.72 32.0996 45.3334 32.0996C51.9467 32.0996 57.3334 37.4863 57.3334 44.0996C57.3334 50.7129 51.9467 56.0996 45.3334 56.0996ZM45.3334 40.0996C43.1467 40.0996 41.3334 41.9129 41.3334 44.0996C41.3334 46.2863 43.1467 48.0996 45.3334 48.0996C47.52 48.0996 49.3334 46.2863 49.3334 44.0996C49.3334 41.9129 47.52 40.0996 45.3334 40.0996Z" fill="#529A9A"/>
<path d="M64 103.833C48.5333 103.833 36 91.2465 36 75.8332C36 70.9799 39.9467 67.0332 44.8 67.0332H83.2C88.0533 67.0332 92 70.9799 92 75.8332C92 91.2465 79.4667 103.833 64 103.833ZM44.8 75.0332C44.3733 75.0332 44 75.4065 44 75.8332C44 86.8732 52.96 95.8332 64 95.8332C75.04 95.8332 84 86.8732 84 75.8332C84 75.4065 83.6267 75.0332 83.2 75.0332H44.8Z" fill="#529A9A"/>
</svg>
