<svg width="160" height="160" viewBox="0 0 160 160" fill="none" xmlns="http://www.w3.org/2000/svg">
<path d="M79.0804 139.617L48.3947 130.54C25.8407 123.869 21.0147 114.989 27.6861 92.4348L42.814 41.2919C49.4854 18.7379 58.3657 13.9119 80.9196 20.5833L111.605 29.66C134.159 36.3314 138.985 45.2117 132.314 67.7657L117.186 118.909C110.515 141.463 101.634 146.289 79.0804 139.617ZM78.6505 28.2547C60.3413 22.8389 55.8861 25.3031 50.4854 43.5611L35.3575 94.7039C29.9569 112.962 32.3547 117.453 50.6639 122.869L81.3496 131.946C99.6587 137.362 104.114 134.897 109.515 116.639L124.643 65.4965C130.043 47.2385 127.645 42.7473 109.336 37.3315L78.6505 28.2547Z" fill="#529A9A"/>
<path d="M98.9271 53.7185L78.47 47.6673C76.3731 47.0471 75.1486 44.7939 75.7689 42.697C76.3891 40.6002 78.6423 39.3757 80.7392 39.9959L101.196 46.0471C103.293 46.6673 104.518 48.9205 103.897 51.0174C103.277 53.1142 101.024 54.3387 98.9271 53.7185Z" fill="#529A9A"/>
<path d="M68.1094 120.298C61.6143 118.377 57.9048 111.551 59.826 105.056C61.7472 98.5607 68.5731 94.8511 75.0683 96.7724C81.5634 98.6936 85.273 105.52 83.3517 112.015C81.4305 118.51 74.6046 122.219 68.1094 120.298ZM72.8142 104.393C70.5639 103.727 68.1782 105.024 67.5126 107.274C66.8469 109.524 68.1435 111.91 70.3938 112.576C72.644 113.241 75.0298 111.945 75.6954 109.694C76.361 107.444 75.0645 105.058 72.8142 104.393Z" fill="#529A9A"/>
</svg>
