<svg width="128" height="129" viewBox="0 0 128 129" fill="none" xmlns="http://www.w3.org/2000/svg">
<path d="M98.6675 108.1H77.3342C75.1475 108.1 73.3342 106.286 73.3342 104.1C73.3342 101.913 75.1475 100.1 77.3342 100.1H98.6675C100.854 100.1 102.668 101.913 102.668 104.1C102.668 106.286 100.854 108.1 98.6675 108.1Z" fill="#529A9A"/>
<path d="M88.0008 118.766C85.8142 118.766 84.0008 116.953 84.0008 114.766V93.4326C84.0008 91.246 85.8142 89.4326 88.0008 89.4326C90.1875 89.4326 92.0008 91.246 92.0008 93.4326V114.766C92.0008 116.953 90.1875 118.766 88.0008 118.766Z" fill="#529A9A"/>
<path d="M64.8542 62.0733C64.6942 62.0733 64.5875 62.0733 64.4275 62.0733C64.1608 62.0199 63.7875 62.0199 63.4675 62.0733C48.0008 61.5933 36.3208 49.4333 36.3208 34.4466C36.2675 27.0866 39.1475 20.1533 44.3742 14.9266C49.6008 9.69993 56.5342 6.7666 63.9475 6.7666C79.2008 6.7666 91.6275 19.1933 91.6275 34.4466C91.6275 49.4333 79.9475 61.5399 65.0142 62.0733C64.9608 62.0733 64.9075 62.0733 64.8542 62.0733ZM63.9475 14.7666C58.6675 14.7666 53.7608 16.8466 50.0275 20.5266C46.3475 24.2599 44.3208 29.1666 44.3208 34.3933C44.3208 45.0599 52.6408 53.6999 63.2542 54.0199C63.5742 53.9666 64.2675 53.9666 64.9608 54.0199C75.4675 53.5399 83.6275 44.9533 83.6275 34.3933C83.6275 23.6199 74.7742 14.7666 63.9475 14.7666Z" fill="#529A9A"/>
<path d="M63.9475 120.419C53.0675 120.419 42.7742 117.593 34.9875 112.366C27.5742 107.406 23.5208 100.633 23.5208 93.3259C23.5208 86.0192 27.6275 79.2992 34.9875 74.3926C50.9342 63.7259 76.8542 63.7259 92.8008 74.3926C94.6142 75.6192 95.1475 78.1259 93.9208 79.9392C92.6942 81.8059 90.1875 82.2859 88.3742 81.0592C75.0942 72.2059 52.6942 72.2059 39.4142 81.0592C34.2942 84.4726 31.5208 88.7926 31.5208 93.3259C31.5208 97.8592 34.2942 102.286 39.4142 105.699C45.8675 110.019 54.5608 112.366 63.8942 112.366C66.0808 112.366 67.8942 114.179 67.8942 116.366C67.8942 118.553 66.1342 120.419 63.9475 120.419Z" fill="#529A9A"/>
</svg>
