<svg width="64" height="64" viewBox="0 0 64 64" fill="none" xmlns="http://www.w3.org/2000/svg">
<path d="M32 42C20.96 42 12 33.3334 12 22.6667C12 12 20.96 3.33337 32 3.33337C43.04 3.33337 52 12 52 22.6667C52 33.3334 43.04 42 32 42ZM32 7.33337C23.1733 7.33337 16 14.2134 16 22.6667C16 31.12 23.1733 38 32 38C40.8267 38 48 31.12 48 22.6667C48 14.2134 40.8267 7.33337 32 7.33337Z" fill="#529A9A"/>
<path d="M41.6533 60.6665C40.9066 60.6665 40.1599 60.4798 39.3866 60.1332L32.2133 56.7465C32.1333 56.7199 31.84 56.7199 31.7333 56.7465L24.6133 60.1066C23.04 60.8532 21.3867 60.8265 20.1067 59.9999C18.7733 59.1465 18 57.5732 18.0267 55.7066L18.0533 36.0266C18.0533 34.9332 18.9066 33.9732 20.0533 34.0266C21.1466 34.0266 22.0533 34.9332 22.0533 36.0266L22.0267 55.7066C22.0267 56.2932 22.1867 56.5866 22.2667 56.6132C22.32 56.6399 22.56 56.6665 22.9333 56.4799L30.08 53.0932C31.2266 52.5599 32.8 52.5599 33.9467 53.0932L41.12 56.4799C41.4933 56.6665 41.7333 56.6399 41.7867 56.6132C41.8667 56.5599 42.0267 56.2666 42.0267 55.7066V35.5465C42.0267 34.4532 42.9333 33.5465 44.0267 33.5465C45.12 33.5465 46.0267 34.4532 46.0267 35.5465V55.7066C46.0267 57.5999 45.2533 59.1465 43.92 59.9999C43.2266 60.4532 42.4533 60.6665 41.6533 60.6665Z" fill="#529A9A"/>
</svg>
