<svg width="64" height="64" viewBox="0 0 64 64" fill="none" xmlns="http://www.w3.org/2000/svg">
<path d="M32 60.6934C29.0933 60.6934 26.2133 59.8401 23.9466 58.1601L12.48 49.6001C9.43998 47.3334 7.06665 42.5868 7.06665 38.8268V18.9868C7.06665 14.8801 10.08 10.5068 13.9467 9.06675L27.2533 4.08009C29.8933 3.09342 34.0533 3.09342 36.6933 4.08009L50 9.06675C53.8667 10.5068 56.88 14.8801 56.88 18.9868V38.8001C56.88 42.5868 54.5066 47.3068 51.4667 49.5734L40 58.1334C37.7867 59.8401 34.9067 60.6934 32 60.6934ZM28.6667 7.84009L15.36 12.8268C13.0933 13.6801 11.0933 16.5601 11.0933 19.0134V38.8268C11.0933 41.3601 12.88 44.9068 14.88 46.4001L26.3467 54.9601C29.4133 57.2534 34.5867 57.2534 37.68 54.9601L49.1467 46.4001C51.1733 44.8801 52.9333 41.3601 52.9333 38.8268V18.9868C52.9333 16.5601 50.9333 13.6801 48.6667 12.8001L35.36 7.81342C33.5467 7.17342 30.4533 7.17342 28.6667 7.84009Z" fill="#529A9A"/>
<path d="M28.4267 37.9466C27.92 37.9466 27.4133 37.7599 27.0133 37.3599L22.72 33.0666C21.9467 32.2932 21.9467 31.0132 22.72 30.2399C23.4933 29.4666 24.7733 29.4666 25.5467 30.2399L28.4267 33.1199L38.48 23.0666C39.2533 22.2932 40.5333 22.2932 41.3067 23.0666C42.08 23.8399 42.08 25.1199 41.3067 25.8932L29.84 37.3599C29.44 37.7599 28.9333 37.9466 28.4267 37.9466Z" fill="#529A9A"/>
</svg>
