<svg width="64" height="64" viewBox="0 0 64 64" fill="none" xmlns="http://www.w3.org/2000/svg">
<path d="M32 60.6667C18.0266 60.6667 6.66663 49.3067 6.66663 35.3333C6.66663 21.36 18.0266 10 32 10C45.9733 10 57.3333 21.36 57.3333 35.3333C57.3333 49.3067 45.9733 60.6667 32 60.6667ZM32 14C20.24 14 10.6666 23.5733 10.6666 35.3333C10.6666 47.0933 20.24 56.6667 32 56.6667C43.76 56.6667 53.3333 47.0933 53.3333 35.3333C53.3333 23.5733 43.76 14 32 14Z" fill="#529A9A"/>
<path d="M32 36.6667C30.9067 36.6667 30 35.76 30 34.6667V21.3334C30 20.24 30.9067 19.3334 32 19.3334C33.0933 19.3334 34 20.24 34 21.3334V34.6667C34 35.76 33.0933 36.6667 32 36.6667Z" fill="#529A9A"/>
<path d="M40 7.33337H24C22.9067 7.33337 22 6.42671 22 5.33337C22 4.24004 22.9067 3.33337 24 3.33337H40C41.0933 3.33337 42 4.24004 42 5.33337C42 6.42671 41.0933 7.33337 40 7.33337Z" fill="#529A9A"/>
</svg>
