<svg width="64" height="64" viewBox="0 0 64 64" fill="none" xmlns="http://www.w3.org/2000/svg">
<path d="M37.3334 55.3334H26.6667C13.7867 55.3334 3.33337 44.8534 3.33337 32.0001C3.33337 19.1467 13.7867 8.66675 26.6667 8.66675H37.3334C50.2134 8.66675 60.6667 19.1467 60.6667 32.0001C60.6667 44.8534 50.2134 55.3334 37.3334 55.3334ZM26.6667 12.6667C16 12.6667 7.33337 21.3334 7.33337 32.0001C7.33337 42.6667 16 51.3334 26.6667 51.3334H37.3334C48 51.3334 56.6667 42.6667 56.6667 32.0001C56.6667 21.3334 48 12.6667 37.3334 12.6667H26.6667Z" fill="#529A9A"/>
<path d="M26.6667 44.6666C19.68 44.6666 14 38.9866 14 31.9999C14 25.0133 19.68 19.3333 26.6667 19.3333C33.6533 19.3333 39.3333 25.0133 39.3333 31.9999C39.3333 38.9866 33.6533 44.6666 26.6667 44.6666ZM26.6667 23.3333C21.8933 23.3333 18 27.2266 18 31.9999C18 36.7733 21.8933 40.6666 26.6667 40.6666C31.44 40.6666 35.3333 36.7733 35.3333 31.9999C35.3333 27.2266 31.44 23.3333 26.6667 23.3333Z" fill="#529A9A"/>
</svg>
