<svg width="476" height="506" viewBox="0 0 476 506" fill="none" xmlns="http://www.w3.org/2000/svg">
<g clip-path="url(#clip0_131_3522)">
<path d="M20.7 498.4V148.4C20.7 125.5 35.5 106.4 57.4 101.4L434.5 13.9997C438.8 12.9997 443.2 12.9997 447.4 13.7997C462.7 16.7997 475.4 30.7997 475.4 47.3997V296.6C475.4 319.6 460.5 338.6 438.6 343.6L108.4 419.3C91.9 423.1 77.8 433 68.9 447L33.5 503C29.9 508.7 20.7 505.4 20.7 498.4Z" fill="#F7978E"/>
<path d="M0 485.1V135.2C0 112.3 14.8 93.1995 36.7 88.1995L413.8 0.799549C418.1 -0.200451 422.5 -0.200451 426.7 0.599549C442 3.59955 454.7 17.5996 454.7 34.1996V283.4C454.7 306.4 439.8 325.4 417.9 330.4L87.6 406.1C71.1 409.9 57 419.8 48.1 433.8L12.7 489.7C9.2 495.4 0 492.1 0 485.1Z" fill="#529A9A"/>
<path d="M117.3 218.2C104.5 221.2 94 219.5 85.7 213C77.4 206.5 73.2 197 73.2 184.6C73.2 172.1 77.4 160.6 85.7 150.2C94 139.8 104.6 133.1 117.3 130C125 128.2 132.1 128.3 138.6 130.4C145.1 132.5 150.2 136.1 153.8 141.4L139.4 153.2C137.3 149.9 134.3 147.6 130.4 146.4C126.5 145.2 122.2 145.1 117.3 146.3C109.1 148.3 102.4 152.4 97.4 158.8C92.4 165.2 89.8 172.5 89.8 180.7C89.8 188.9 92.3 194.9 97.4 198.9C102.4 202.9 109.1 203.9 117.3 201.9C122.1 200.8 126.5 198.6 130.4 195.6C134.3 192.5 137.3 188.9 139.3 184.7L153.7 189.6C150.1 196.6 145 202.7 138.6 207.8C132.1 212.9 125 216.4 117.3 218.2Z" fill="white"/>
<path d="M218.2 192.6L213.1 178.5L179.3 186.5L174.2 203L156.2 207.3L185.9 115.5L206.6 110.6L236.4 188.3L218.2 192.6ZM184.6 169.7L207.9 164.2L196.3 132.3L184.6 169.7Z" fill="white"/>
<path d="M271.6 181.6C263.2 183.6 256.1 183.4 250.4 181C244.7 178.6 240.6 174.5 238.3 168.6L252.6 156.9C255.9 164.8 262.4 167.5 272.1 165.2C276.8 164.1 280.2 162.4 282.4 160.2C284.6 158 285.7 155.6 285.7 153C285.7 150 284.4 148 281.7 147C279 146 274.3 145.3 267.4 145C263.6 144.8 260.4 144.4 257.8 143.9C255.2 143.4 252.5 142.5 249.9 141.2C247.3 139.9 245.3 138 243.9 135.4C242.5 132.8 241.8 129.6 241.8 125.7C241.8 118 244.5 111.3 250 105.4C255.5 99.4998 262 95.6998 269.7 93.8998C276.6 92.2998 282.6 92.4998 287.8 94.5998C293 96.6998 297.1 100.4 300 105.7L285.9 117.1C282.5 110.6 277.1 108.3 269.7 110C266.2 110.8 263.5 112.3 261.5 114.3C259.5 116.3 258.5 118.6 258.5 121.1C258.5 123.8 259.6 125.7 261.8 126.8C264 127.9 268.3 128.7 274.6 129.2C277.2 129.4 279.1 129.6 280.5 129.7C281.8 129.8 283.7 130.1 286 130.5C288.3 130.9 290.1 131.3 291.3 131.8C292.6 132.3 294 133.1 295.6 134C297.2 135 298.4 136.1 299.3 137.4C300.1 138.7 300.9 140.2 301.5 142.2C302.1 144.1 302.4 146.3 302.4 148.7C302.4 156.5 299.6 163.4 293.9 169.4C288.1 175.4 280.7 179.5 271.6 181.6Z" fill="white"/>
<path d="M360.9 73.9996L377.5 70.0996V154.9L360.9 158.8V123.7L329.4 131.2V166.3L312.7 170.3V85.3996L329.4 81.3996V115.1L360.9 107.6V73.9996Z" fill="white"/>
<path d="M128.3 283.699C135.7 286.199 139.4 291.799 139.4 300.399C139.4 307.599 136.9 314.099 131.8 319.899C126.7 325.699 120.5 329.499 113 331.299L77 339.799V254.999L110.4 247.099C117.7 245.399 123.8 246.199 128.8 249.499C133.8 252.799 136.2 257.899 136.2 264.899C136.3 271.899 133.6 278.099 128.3 283.699ZM110.5 262.699L93.8 266.699V285.399L110.5 281.399C113.1 280.799 115.2 279.399 117 277.199C118.7 274.999 119.6 272.599 119.6 269.899C119.6 267.199 118.8 265.199 117.1 263.799C115.3 262.399 113.2 262.099 110.5 262.699ZM113 315.599C115.8 314.899 118.2 313.399 120 311.099C121.9 308.799 122.8 306.099 122.8 303.199C122.8 300.399 121.9 298.199 120 296.799C118.1 295.299 115.8 294.999 113 295.599L93.7 300.199V320.199L113 315.599Z" fill="white"/>
<path d="M204.9 309.5L199.8 295.4L166 303.4L160.9 319.9L142.9 324.2L172.6 232.4L193.3 227.5L223.1 305.2L204.9 309.5ZM171.3 286.6L194.6 281.1L183 249.2L171.3 286.6Z" fill="white"/>
<path d="M268.5 296.099C255.7 299.099 245.2 297.399 236.9 290.899C228.6 284.399 224.4 274.899 224.4 262.499C224.4 249.999 228.6 238.499 236.9 228.099C245.2 217.699 255.8 210.999 268.5 207.899C276.2 206.099 283.3 206.199 289.8 208.299C296.3 210.399 301.4 213.999 305 219.299L290.5 230.999C288.4 227.699 285.4 225.399 281.5 224.199C277.6 222.999 273.3 222.899 268.4 224.099C260.2 226.099 253.5 230.199 248.5 236.599C243.5 242.999 240.9 250.299 240.9 258.499C240.9 266.699 243.4 272.699 248.5 276.699C253.5 280.699 260.2 281.699 268.4 279.699C273.2 278.599 277.6 276.399 281.5 273.399C285.4 270.299 288.4 266.699 290.4 262.499L304.8 267.399C301.2 274.399 296.1 280.499 289.7 285.599C283.3 290.799 276.2 294.299 268.5 296.099Z" fill="white"/>
<path d="M381.5 267.6L362.2 272.2L331.9 239.6V279.3L315.2 283.3V198.5L331.9 194.5V232L361 187.7L380.3 183.1L348.9 231.7L381.5 267.6Z" fill="white"/>
</g>
<defs>
<clipPath id="clip0_131_3522">
<rect width="475.3" height="505.9" fill="white"/>
</clipPath>
</defs>
</svg>
