<svg width="64" height="64" viewBox="0 0 64 64" fill="none" xmlns="http://www.w3.org/2000/svg">
<path d="M32 60.6668C16.1867 60.6668 3.33334 47.8135 3.33334 32.0002C3.33334 16.1868 16.1867 3.3335 32 3.3335C47.8133 3.3335 60.6667 16.1868 60.6667 32.0002C60.6667 47.8135 47.8133 60.6668 32 60.6668ZM32 7.3335C18.4 7.3335 7.33334 18.4002 7.33334 32.0002C7.33334 45.6002 18.4 56.6668 32 56.6668C45.6 56.6668 56.6667 45.6002 56.6667 32.0002C56.6667 18.4002 45.6 7.3335 32 7.3335Z" fill="#FDFAFA"/>
<path d="M32 36.6668C30.9067 36.6668 30 35.7602 30 34.6668V21.3335C30 20.2402 30.9067 19.3335 32 19.3335C33.0933 19.3335 34 20.2402 34 21.3335V34.6668C34 35.7602 33.0933 36.6668 32 36.6668Z" fill="#FDFAFA"/>
<path d="M32 45.3332C31.6533 45.3332 31.3067 45.2532 30.9867 45.1199C30.6667 44.9865 30.3733 44.7999 30.1067 44.5599C29.8667 44.2932 29.68 44.0265 29.5467 43.6799C29.4133 43.3599 29.3333 43.0132 29.3333 42.6665C29.3333 42.3199 29.4133 41.9732 29.5467 41.6532C29.68 41.3332 29.8667 41.0399 30.1067 40.7732C30.3733 40.5332 30.6667 40.3465 30.9867 40.2132C31.6267 39.9465 32.3733 39.9465 33.0133 40.2132C33.3333 40.3465 33.6267 40.5332 33.8933 40.7732C34.1333 41.0399 34.32 41.3332 34.4533 41.6532C34.5867 41.9732 34.6667 42.3199 34.6667 42.6665C34.6667 43.0132 34.5867 43.3599 34.4533 43.6799C34.32 44.0265 34.1333 44.2932 33.8933 44.5599C33.6267 44.7999 33.3333 44.9865 33.0133 45.1199C32.6933 45.2532 32.3467 45.3332 32 45.3332Z" fill="#FDFAFA"/>
</svg>
