<svg width="64" height="64" viewBox="0 0 64 64" fill="none" xmlns="http://www.w3.org/2000/svg">
<path opacity="0.6" d="M26.2236 31.9998C26.2236 28.809 28.8097 26.2216 32.0007 26.2216C35.1917 26.2216 37.7792 28.809 37.7792 31.9998C37.7792 35.1907 35.1917 37.7781 32.0007 37.7781C28.8097 37.7781 26.2236 35.1907 26.2236 31.9998ZM23.0999 31.9998C23.0999 36.9156 27.0848 40.9003 32.0007 40.9003C36.9166 40.9003 40.9015 36.9156 40.9015 31.9998C40.9015 27.0841 36.9166 23.0994 32.0007 23.0994C27.0848 23.0994 23.0999 27.0841 23.0999 31.9998ZM39.1738 22.7465C39.1736 23.1579 39.2954 23.5601 39.5239 23.9022C39.7523 24.2443 40.0771 24.5111 40.4571 24.6687C40.8371 24.8262 41.2553 24.8676 41.6589 24.7875C42.0624 24.7074 42.4331 24.5094 42.7241 24.2187C43.0151 23.9279 43.2134 23.5574 43.2938 23.1539C43.3742 22.7505 43.3332 22.3322 43.1759 21.9521C43.0186 21.572 42.7522 21.247 42.4102 21.0183C42.0682 20.7896 41.6661 20.6675 41.2547 20.6673H41.2539C40.7024 20.6676 40.1736 20.8867 39.7836 21.2765C39.3936 21.6664 39.1743 22.195 39.1738 22.7465V22.7465ZM24.9977 46.1088C23.3077 46.0318 22.3892 45.7503 21.7787 45.5125C20.9694 45.1974 20.392 44.8222 19.7849 44.216C19.1778 43.6097 18.802 43.0328 18.4883 42.2236C18.2504 41.6135 17.9689 40.6947 17.892 39.0047C17.808 37.1776 17.7912 36.6288 17.7912 32C17.7912 27.3711 17.8094 26.8238 17.892 24.9952C17.969 23.3053 18.2526 22.3883 18.4883 21.7764C18.8034 20.9671 19.1786 20.3897 19.7849 19.7826C20.3912 19.1755 20.9681 18.7997 21.7787 18.4861C22.3889 18.2481 23.3077 17.9666 24.9977 17.8898C26.8249 17.8058 27.3737 17.789 32.0007 17.789C36.6276 17.789 37.177 17.8072 39.0057 17.8898C40.6957 17.9668 41.6127 18.2503 42.2247 18.4861C43.034 18.7997 43.6114 19.1764 44.2185 19.7826C44.8256 20.3889 45.2001 20.9671 45.5151 21.7764C45.7531 22.3865 46.0346 23.3053 46.1114 24.9952C46.1954 26.8238 46.2122 27.3711 46.2122 32C46.2122 36.6288 46.1954 37.1761 46.1114 39.0047C46.0344 40.6947 45.7516 41.6132 45.5151 42.2236C45.2001 43.0328 44.8248 43.6103 44.2185 44.216C43.6123 44.8216 43.034 45.1974 42.2247 45.5125C41.6145 45.7504 40.6957 46.0319 39.0057 46.1088C37.1786 46.1928 36.6297 46.2096 32.0007 46.2096C27.3717 46.2096 26.8243 46.1928 24.9977 46.1088V46.1088ZM24.8542 14.7715C23.0089 14.8555 21.748 15.1481 20.6468 15.5766C19.5063 16.0191 18.5409 16.6127 17.5761 17.5759C16.6114 18.539 16.0193 19.506 15.5768 20.6464C15.1483 21.7482 14.8557 23.0084 14.7716 24.8537C14.6862 26.7018 14.6667 27.2927 14.6667 31.9998C14.6667 36.707 14.6862 37.2979 14.7716 39.146C14.8557 40.9914 15.1483 42.2515 15.5768 43.3533C16.0193 44.493 16.6115 45.461 17.5761 46.4238C18.5407 47.3866 19.5063 47.9794 20.6468 48.4231C21.75 48.8516 23.0089 49.1442 24.8542 49.2282C26.7034 49.3122 27.2933 49.3332 32.0007 49.3332C36.708 49.3332 37.2989 49.3136 39.1472 49.2282C40.9926 49.1442 42.2527 48.8516 43.3546 48.4231C44.4944 47.9794 45.4605 47.387 46.4252 46.4238C47.39 45.4606 47.9809 44.493 48.4246 43.3533C48.8531 42.2515 49.1471 40.9913 49.2297 39.146C49.3138 37.2965 49.3333 36.707 49.3333 31.9998C49.3333 27.2927 49.3138 26.7018 49.2297 24.8537C49.1457 23.0083 48.8531 21.7475 48.4246 20.6464C47.9809 19.5067 47.3884 18.5406 46.4252 17.5759C45.462 16.6112 44.4944 16.0191 43.356 15.5766C42.2527 15.1481 40.9925 14.8541 39.1485 14.7715C37.3003 14.6874 36.7094 14.6665 32.0021 14.6665C27.2947 14.6665 26.7034 14.6861 24.8542 14.7715Z" fill="#FDFAFA"/>
</svg>
