<svg width="64" height="64" viewBox="0 0 64 64" fill="none" xmlns="http://www.w3.org/2000/svg">
<path opacity="0.6" d="M49.7667 47.0999C47.6667 47.0499 45.6167 47.0499 43.5167 47.0999C43.0667 47.0999 42.9667 46.9999 42.9667 46.5499C42.9667 42.8499 42.9667 39.0999 42.9667 35.3999C42.9667 34.5499 42.9167 33.6999 42.6667 32.8999C41.9167 30.2999 38.9167 29.3499 36.7667 31.0999C35.6167 31.9999 35.1667 33.2499 35.1667 34.7499C35.1667 38.2499 35.1667 41.7499 35.1667 45.2499C35.1667 45.6999 35.1167 46.1499 35.1667 46.6499C35.2167 47.0499 35.0167 47.1499 34.6667 47.0999C32.5167 47.0999 30.4167 47.0999 28.2667 47.0999C27.8667 47.0999 27.7667 46.9999 27.7667 46.5999C27.8167 43.4499 27.8167 40.2999 27.8167 37.0999C27.8167 33.1999 27.8167 29.2999 27.7667 25.4499C27.7667 24.9999 27.8667 24.8999 28.2667 24.8999C30.4167 24.8999 32.5167 24.8999 34.6667 24.8999C35.0667 24.8999 35.1667 24.9999 35.1667 25.3999C35.1667 26.1999 35.1667 26.9999 35.1667 27.9499C35.3167 27.7999 35.3667 27.7499 35.4167 27.6999C37.3667 24.8499 40.1167 24.0499 43.3667 24.5499C47.1167 25.1499 49.5167 27.7499 50.1167 31.7499C50.2667 32.6999 50.3167 33.6499 50.3167 34.5999C50.3167 38.5999 50.3167 42.5499 50.3167 46.5499C50.3167 46.9499 50.2167 47.0999 49.7667 47.0999Z" fill="#FDFAFA"/>
<path opacity="0.6" d="M23.7667 35.9999C23.7667 39.4999 23.7667 42.9999 23.7667 46.4999C23.7667 46.9499 23.6667 47.0999 23.2167 47.0999C21.1167 47.0499 19.0167 47.0999 16.9167 47.0999C16.5167 47.0999 16.4167 46.9999 16.4167 46.5999C16.4167 39.5499 16.4167 32.4499 16.4167 25.3999C16.4167 25.0499 16.5167 24.8999 16.9167 24.8999C19.0667 24.8999 21.2167 24.8999 23.3667 24.8999C23.8167 24.8999 23.8667 25.0499 23.8667 25.4499C23.7667 28.9499 23.7667 32.4499 23.7667 35.9999Z" fill="#FDFAFA"/>
<path opacity="0.6" d="M24.1167 19.1C23.6167 21.1 21.5667 22.25 19.2167 21.85C16.7167 21.45 15.3167 19 16.2167 16.6C16.8167 15.1 18.2667 14.2 20.1167 14.25C22.9167 14.2 24.7667 16.45 24.1167 19.1Z" fill="#FDFAFA"/>
</svg>
