<svg width="64" height="64" viewBox="0 0 64 64" fill="none" xmlns="http://www.w3.org/2000/svg">
<path d="M31.9998 40.6935C31.4932 40.6935 30.9865 40.5069 30.5865 40.1069L22.5865 32.1069C21.8132 31.3335 21.8132 30.0535 22.5865 29.2802C23.3598 28.5069 24.6398 28.5069 25.4132 29.2802L31.9998 35.8669L38.5865 29.2802C39.3598 28.5069 40.6398 28.5069 41.4132 29.2802C42.1865 30.0535 42.1865 31.3335 41.4132 32.1069L33.4132 40.1069C33.0132 40.5069 32.5065 40.6935 31.9998 40.6935Z" fill="#FDFAFA"/>
<path d="M32 40.6932C30.9067 40.6932 30 39.7865 30 38.6932V17.3599C30 16.2665 30.9067 15.3599 32 15.3599C33.0933 15.3599 34 16.2665 34 17.3599V38.6932C34 39.8132 33.0933 40.6932 32 40.6932Z" fill="#FDFAFA"/>
<path d="M31.9999 48.6134C26.3732 48.6134 20.7199 47.7068 15.3599 45.9201C14.3199 45.5734 13.7599 44.4268 14.1065 43.3868C14.4532 42.3468 15.5732 41.7601 16.6398 42.1334C26.5598 45.4401 37.4665 45.4401 47.3865 42.1334C48.4265 41.7868 49.5732 42.3468 49.9199 43.3868C50.2665 44.4268 49.7065 45.5734 48.6665 45.9201C43.2799 47.7334 37.6265 48.6134 31.9999 48.6134Z" fill="#FDFAFA"/>
</svg>
