<svg width="52" height="50" viewBox="0 0 52 50" fill="none" xmlns="http://www.w3.org/2000/svg">
<path d="M22.3678 2.87466C23.7974 -0.224828 28.2026 -0.224828 29.6322 2.87466L34.0906 12.5403C34.6732 13.8036 35.8704 14.6733 37.2518 14.8371L47.8221 16.0904C51.2117 16.4923 52.573 20.6818 50.067 22.9993L42.2521 30.2263C41.2307 31.1708 40.7735 32.5781 41.0446 33.9426L43.1191 44.3828C43.7843 47.7307 40.2204 50.32 37.242 48.6528L27.9538 43.4536C26.7399 42.7742 25.2601 42.7741 24.0462 43.4536L14.758 48.6528C11.7796 50.32 8.21573 47.7307 8.88095 44.3828L10.9554 33.9426C11.2265 32.5781 10.7693 31.1708 9.74792 30.2263L1.93302 22.9993C-0.572983 20.6818 0.788282 16.4923 4.17786 16.0904L14.7482 14.8371C16.1296 14.6733 17.3268 13.8036 17.9094 12.5403L22.3678 2.87466Z" fill="url(#paint0_linear_612_1469)"/>
<defs>
<linearGradient id="paint0_linear_612_1469" x1="0.400001" y1="42.36" x2="51.6" y2="23.8" gradientUnits="userSpaceOnUse">
<stop stop-color="#F59F50"/>
<stop offset="1" stop-color="#FCB121"/>
</linearGradient>
</defs>
</svg>
