<svg width="64" height="64" viewBox="0 0 64 64" fill="none" xmlns="http://www.w3.org/2000/svg">
<path opacity="0.6" d="M47.6833 25.0835C47.6833 25.4335 47.6833 25.7835 47.6833 26.0835C47.6833 36.4335 39.7833 48.3835 25.3833 48.3835C20.9333 48.3835 16.8333 47.0835 13.3333 44.8835C13.9333 44.9335 14.5833 44.9835 15.1833 44.9835C18.8333 44.9835 22.2333 43.7335 24.9333 41.6335C21.4833 41.5835 18.5833 39.2835 17.6333 36.1835C18.1333 36.2835 18.5833 36.3335 19.1333 36.3335C19.8333 36.3335 20.5333 36.2335 21.1833 36.0335C17.5833 35.3335 14.8833 32.1835 14.8833 28.3835C14.8833 28.3335 14.8833 28.3335 14.8833 28.2835C15.9333 28.8835 17.1333 29.2335 18.4333 29.2835C16.3333 27.8835 14.9333 25.4835 14.9333 22.7335C14.9333 21.2835 15.3333 19.9335 15.9833 18.7835C19.8333 23.5335 25.6333 26.6335 32.1333 26.9835C31.9833 26.4335 31.9333 25.7835 31.9333 25.1835C31.9333 20.8335 35.4333 17.3335 39.7833 17.3335C42.0333 17.3335 44.0833 18.2835 45.4833 19.7835C47.2833 19.4335 48.9333 18.7835 50.4833 17.8835C49.8833 19.7335 48.6333 21.2335 47.0333 22.2335C48.6333 22.0335 50.1333 21.6335 51.5333 20.9835C50.5333 22.5835 49.2333 23.9835 47.6833 25.0835Z" fill="#FDFAFA"/>
</svg>
