<svg width="64" height="64" viewBox="0 0 64 64" fill="none" xmlns="http://www.w3.org/2000/svg">
<path opacity="0.6" fill-rule="evenodd" clip-rule="evenodd" d="M47.6506 18.8533C49.3639 19.3145 50.7148 20.6654 51.1761 22.3788C52.0328 25.5089 51.9998 32.0328 51.9998 32.0328C51.9998 32.0328 51.9998 38.5237 51.1761 41.6538C50.7148 43.3672 49.3639 44.7181 47.6506 45.1793C44.5205 46.0031 31.9999 46.0031 31.9999 46.0031C31.9999 46.0031 19.5123 46.0031 16.3492 45.1464C14.6359 44.6851 13.285 43.3342 12.8237 41.6209C12 38.5237 12 31.9998 12 31.9998C12 31.9998 12 25.5089 12.8237 22.3788C13.285 20.6654 14.6689 19.2816 16.3492 18.8203C19.4794 17.9966 31.9999 17.9966 31.9999 17.9966C31.9999 17.9966 44.5205 17.9966 47.6506 18.8533ZM38.4249 31.9998L28.0131 37.9965V26.0031L38.4249 31.9998Z" fill="#FDFAFA"/>
</svg>
